<?xml version="1.0" encoding="utf-8"?>
<!-- Generator: Adobe Illustrator 25.0.1, SVG Export Plug-In . SVG Version: 6.00 Build 0)  -->
<svg version="1.0" id="katman_1" xmlns="http://www.w3.org/2000/svg" xmlns:xlink="http://www.w3.org/1999/xlink" x="0px" y="0px"
	 viewBox="0 0 800 600" style="enable-background:new 0 0 800 600;" xml:space="preserve">
<style type="text/css">
	.st0{fill:#14BF96;}
	.st1{fill:#FFFFFF;}
</style>
<path d="M204.4,273.1c0.1-1,0.9-1.8,2-1.8h7.2c1.1,0,2,0.9,2,2v22.2l20.7-23.4c0.4-0.5,1-0.8,1.6-0.8h8.2c0.9,0,1.8,0.7,1.8,1.6
	c0,0.5-0.2,1-0.5,1.3l-21.5,24.2l23,27.6c0.6,0.8,0.4,2-0.4,2.6c-0.3,0.2-0.7,0.3-1.1,0.3h-9c-0.6,0-1.1-0.2-1.5-0.6l-21.5-26.5
	v25.1c0,1.1-0.9,2-2,2h-7.2c-1.1,0-2-0.9-2-2c0,0,0,0,0,0L204.4,273.1z"/>
<path d="M254.9,272.9c0.1-1,0.8-1.7,1.8-1.8h6.7c1,0,1.8,0.8,1.8,1.8v20.2c2.7-2.2,6.2-3.3,9.7-3.2c12.1,0,15.4,8.4,15.4,17.9v19.1
	c0,1-0.8,1.8-1.8,1.8h-6.7c-1,0-1.8-0.8-1.8-1.8v-19.1c0-5.3-2.4-8.5-6.9-8.5c-3.9-0.1-7.3,2.8-7.9,6.7v21c0,1.1-0.5,1.8-2,1.8h-6.5
	c-1,0-1.8-0.8-1.8-1.8V272.9z"/>
<path d="M311.2,304.7c2.4,0,4.8,0.4,7.2,1.1c0-4.8-1.2-7.2-5.3-7.2c-3.6,0.1-7.2,0.5-10.7,1.4c-1.3,0.4-2-0.5-2.1-1.6l-0.8-4.3
	c-0.3-0.9,0.1-1.9,1-2.2c0.1,0,0.2-0.1,0.2-0.1c4.2-1.2,8.6-1.9,13-1.9c11.9,0,14.3,6.2,14.3,16.6v20.5c0,1-0.8,1.8-1.8,1.8l0,0
	h-2.8c-0.6,0-1.1-0.3-1.6-1.3l-1.1-2.5c-3.2,3.1-7.5,4.8-11.9,4.8c-6.7,0.4-12.4-4.7-12.8-11.3c0-0.6,0-1.1,0-1.7
	C296,309.9,301.6,304.7,311.2,304.7z M311.4,321.9c2.8-0.1,5.4-1.6,6.8-4v-5.6c-1.8-0.7-3.7-1.1-5.6-1.1c-4.4,0-6.7,2-6.7,5.4
	c-0.2,2.8,1.9,5.2,4.7,5.4C310.9,322,311.2,322,311.4,321.9z"/>
<path d="M336.7,292.5c0-1,0.8-1.8,1.8-1.8l0,0h3.2c0.7-0.1,1.4,0.4,1.6,1.1l1.4,3.6c3-3.6,7.5-5.7,12.3-5.5
	c12.1,0,15.2,8.1,15.2,17.3v19.7c-0.1,0.9-0.8,1.7-1.8,1.7h-6.8c-1,0-1.8-0.8-1.8-1.8l0,0v-19.7c0-4.9-2-8-6.6-8
	c-3.8-0.1-7.1,2.3-8.2,5.9v21.7c0,1.4-0.6,1.8-2.4,1.8h-6.1c-1,0-1.8-0.8-1.8-1.8V292.5z"/>
<path d="M391.5,326.6l25.5-55.2c0.2-0.6,0.8-0.9,1.4-0.9h0.8c0.6,0,1.1,0.3,1.4,0.9l25.3,55.4c0.4,0.7,0.1,1.6-0.6,2
	c-0.2,0.1-0.5,0.2-0.8,0.2h-7.2c-1.1,0.1-2.1-0.6-2.4-1.6l-4-8.9h-24.4l-4,8.9c-0.4,1-1.3,1.7-2.4,1.6h-7.2
	c-0.8,0.1-1.5-0.4-1.7-1.2C391.2,327.3,391.3,326.9,391.5,326.6z M427,309.1l-8.2-18.1h-0.3l-8.1,18.1H427z"/>
<path d="M467.1,289.9c5.5,0,10.7,2.4,14.3,6.5c0.8,0.8,0.4,1.9-0.4,2.7l-3.6,3.8c-0.8,0.9-1.7,0.5-2.5-0.3c-1.9-2.1-4.7-3.3-7.6-3.3
	c-5.5,0-10,4.4-10,9.9c0,0.2,0,0.4,0,0.5c-0.3,5.5,3.8,10.2,9.3,10.5c0.2,0,0.4,0,0.7,0c3.2,0,6.2-1.6,8.1-4.2
	c0.6-0.7,1.6-0.8,2.4-0.3l3.6,3.1c0.9,0.8,1.3,1.8,0.6,2.7c-3.2,5.2-9,8.2-15,8c-11,0.5-20.2-8.1-20.7-19c-0.5-11,8.1-20.2,19-20.7
	c0.6,0,1.1,0,1.7,0L467.1,289.9z"/>
<path d="M502.3,304.7c2.4,0,4.8,0.4,7.2,1.1c0-4.8-1.3-7.2-5.3-7.2c-3.6,0.1-7.2,0.5-10.7,1.4c-1.2,0.4-2-0.5-2.1-1.6l-0.8-4.3
	c-0.3-0.9,0.1-1.9,1-2.2c0.1,0,0.2-0.1,0.2-0.1c4.2-1.2,8.6-1.9,13-1.9c11.8,0,14.3,6.2,14.3,16.6v20.5c0,1-0.8,1.8-1.8,1.8h-2.8
	c-0.7,0-1.1-0.3-1.6-1.3l-1.1-2.5c-3.2,3.1-7.5,4.8-11.9,4.8c-6.7,0.4-12.4-4.7-12.8-11.3c0-0.6,0-1.1,0-1.7
	C487.2,309.9,492.7,304.7,502.3,304.7z M502.6,321.9c2.8-0.1,5.4-1.6,6.8-4v-5.6c-1.8-0.7-3.7-1.1-5.6-1.1c-4.4,0-6.7,2-6.7,5.4
	c-0.2,2.7,1.8,5.1,4.6,5.4C502,322,502.3,322,502.6,321.9z"/>
<path d="M544.6,289.9c3.1,0,6.2,0.5,9.1,1.6v-18.5c0.1-1,0.8-1.7,1.8-1.8h6.7c1,0,1.8,0.8,1.8,1.8v54c0,1-0.8,1.8-1.8,1.8h-3
	c-0.9,0-1.5-0.8-1.8-1.8l-1-3c-3.1,3.6-7.6,5.7-12.4,5.7c-10.4,0-18.2-8.4-18.2-19.9c-0.6-10.3,7.2-19.1,17.5-19.8
	C543.7,289.9,544.1,289.9,544.6,289.9z M553.7,301.4c-2.4-1.4-5.1-2.2-7.9-2.1c-5.3,0.1-9.6,4.4-9.5,9.7c0,0.2,0,0.5,0,0.7
	c0,5.4,3,10.5,9,10.5c3.6,0.2,7-1.9,8.4-5.3L553.7,301.4z"/>
<path d="M589.7,289.9c9.4-0.2,17.2,7.2,17.5,16.6c0,0.3,0,0.7,0,1c0,0.6,0,1.9-0.2,2.5c-0.1,0.9-0.9,1.7-1.8,1.7h-24.4
	c0.2,5,4.4,9,9.4,8.8c0,0,0,0,0,0c3,0.1,5.8-0.9,8.1-2.8c0.9-0.8,1.9-0.8,2.5,0l3.2,4.3c0.6,0.6,0.7,1.6,0,2.3
	c-0.1,0.1-0.1,0.1-0.2,0.2c-3.9,3.4-9,5.2-14.2,5.2c-10.6,0-19.2-8.6-19.3-19.2c0-0.2,0-0.5,0-0.7c-0.3-10.6,8-19.5,18.7-19.8
	C589.4,289.9,589.6,289.9,589.7,289.9z M596.9,304.9c-0.2-3.8-3.4-6.7-7.2-6.6c-4-0.3-7.5,2.6-8.1,6.6H596.9z"/>
<path d="M613.3,292.5c0-1,0.8-1.8,1.8-1.8h3c0.7-0.1,1.4,0.4,1.5,1.1l1.4,3.6c2.8-3.6,7.1-5.6,11.6-5.5c4.5-0.2,8.8,2,11.4,5.8
	c3-3.6,7.5-5.7,12.3-5.8c12.1,0,15,7.7,15,17.6v19.4c0,1-0.9,1.8-1.9,1.8c0,0,0,0,0,0h-6.6c-1,0-1.8-0.8-1.8-1.8v-19.7
	c0-4.9-1.8-8-6.6-8c-3-0.3-5.8,1.3-7.2,3.9c0,0,0,1.9,0,3.6v20.1c0,1-0.8,1.8-1.8,1.8h-6.3c-1,0-1.8-0.8-1.8-1.8c0,0,0,0,0-0.1
	v-19.6c0-4.9-1.4-8-6.2-8c-3.5,0.1-6.4,2.5-7.2,5.9v21.7c0,1-0.8,1.8-1.8,1.8h-6.7c-1,0-1.8-0.8-1.8-1.8L613.3,292.5z"/>
<path d="M675.2,293.2c-0.4-0.8-0.1-1.8,0.7-2.3c0.3-0.2,0.6-0.2,1-0.2h7.9c0.7-0.1,1.4,0.4,1.6,1.1l6.8,22.7h0.2l8.6-22.7
	c0.6-1,1.2-1.1,2.4-1.1h7.2c0.9-0.1,1.7,0.6,1.8,1.5c0,0.3,0,0.7-0.2,1l-22.4,54c-0.3,0.7-0.9,1.1-1.6,1.1h-7.9
	c-0.9,0.1-1.8-0.6-1.9-1.6c0-0.3,0-0.7,0.2-1l7.6-19.2L675.2,293.2z"/>
<path class="st0" d="M92,270.6c-3.5,2.2-5.7,5.9-5.9,10v38.7c0.2,4.1,2.4,7.8,5.9,10l34.7,19.4c3.7,1.8,8.1,1.8,11.8,0l34.8-19.4
	c3.5-2.2,5.7-5.9,5.9-10v-38.7c-0.2-4.1-2.4-7.8-5.9-10l-34.7-19.4c-3.7-1.8-8.1-1.8-11.8,0L92,270.6z"/>
<path class="st1" d="M168.3,290.4c-19.3,0-33.7,16-33.7,35.6v0.8h-3.9V326c0-19.6-14.3-35.5-33.8-35.6c0,1.2,0,2.5,0,3.6
	c-0.1,14.8,9.1,28.1,22.9,33.4c4.1,1.5,8.5,2.3,12.9,2.3c4.4,0,8.8-0.8,13-2.3c13.8-5.3,23-18.6,22.9-33.4
	C168.5,292.8,168.5,291.6,168.3,290.4z"/>
<circle class="st1" cx="132.7" cy="281.1" r="10.7"/>
</svg>
