<?xml version="1.0" ?><svg viewBox="0 0 368.66 292.35" xmlns="http://www.w3.org/2000/svg"><defs><style>.cls-1{fill:#fbbd00;}.cls-2,.cls-6{fill:none;stroke:#139334;stroke-miterlimit:10;}.cls-2{stroke-width:8.58px;}.cls-3{fill:#020203;opacity:0.15;}.cls-4{fill:#e2000f;}.cls-5{fill:#0094da;}.cls-6{stroke-width:10.01px;}.cls-7{fill:#fff;}.cls-8{fill:#139334;}</style></defs><title/><g data-name="Capa 2" id="Capa_2"><g data-name="Capa 1" id="Capa_1-2"><polygon class="cls-1" points="29.15 217.51 137.79 292.35 368.66 232.96 263.24 176.24 29.15 217.51"/><path class="cls-2" d="M144.46,88l-.08-50.89c0-11.61,3.4-27.67,21.91-31.55l9.19-1.27c19.5-.38,25.78,15.76,25.8,27.36l.07,50.9"/><path class="cls-3" d="M157.14,158.89l-33.34,5.74L105,151.82c-7.68-6.44-21.9-18.09-49.45-9.92l-.32.11c-1.56.58-15.3,6-17.72,17.12-1.36,6.22,1.07,12.49,7.21,18.63l.47.39L0,185.92l98.76,66.45L110.48,249l150.3-25.06Zm-99.06,17-6.44-5.4c-3.46-3.51-4.93-6.62-4.36-9.26,1-4.85,8.55-8.75,11.29-9.83,22.5-6.6,33.14,2.3,40.19,8.21l10.87,7.41Z"/><polygon class="cls-4" points="100.01 81.4 95.08 251.26 117.19 250.49 139.35 264.7 161.84 111.68 164.15 87.11 100.01 81.4"/><polygon class="cls-5" points="136.73 97.03 139.35 264.7 304.27 229.12 287.79 71.77 136.73 97.03"/><polygon class="cls-1" points="266.79 57.47 265.46 65.48 287.79 71.77 136.73 97.03 136.55 86.85 100.01 81.4 266.79 57.47"/><path class="cls-6" d="M178.54,106.48l-.09-60.83c0-13.86,3.86-33.06,24.91-37.7l10.46-1.51C236,6,243.15,25.27,243.17,39.14l.09,60.82"/><polygon class="cls-7" points="264.47 205.12 183.95 223.28 181.59 174.76 260.73 163.24 264.47 205.12"/><polygon class="cls-8" points="266.79 57.47 270.24 66.31 265.46 65.48 266.79 57.47"/></g></g></svg>